# xmcd
#
# Track frame offsets: 
#        150
#        24109
#        50624
#        65565
#        112841
#        129989
#        153018
#        175752
#        186796
#        224221
#        251093
#
# Disc length: 3561 seconds
#
# Revision: 0
# Processed by: cddbd v1.5.2PL0 Copyright (c) Steve Scherf et al.
# Submitted via: ExactAudioCopy v0.99pb5
#
DISCID=920de70b
DTITLE=Filippo Bellavia and B. Street Band feat. Ike Willis - Zappa In B
DTITLE=lues
DYEAR=2008
DGENRE=Blues
TTITLE0=Road Ladies
TTITLE1=San Ber'dino
TTITLE2=Suicide Chump
TTITLE3=The Torture Never Stops
TTITLE4=Dong Work For Yuda
TTITLE5=Cosmik Debris
TTITLE6=Penguin In Bondage
TTITLE7=Big Leg Emma
TTITLE8=Advance Romance
TTITLE9=Bamboozled By Love
TTITLE10=In France
EXTD=
EXTT0=
EXTT1=
EXTT2=
EXTT3=
EXTT4=
EXTT5=
EXTT6=
EXTT7=
EXTT8=
EXTT9=
EXTT10=
PLAYORDER=
